<?xml version="1.0" encoding="UTF-8" standalone="no"?>
<svg
   version="1.1"
   viewBox="0 0 140.81723 123.73091"
   id="svg36"
   sodipodi:docname="loadFile.svg"
   inkscape:version="1.1 (1:1.1+202105261517+ce6663b3b7)"
   width="140.81723"
   height="123.73091"
   xmlns:inkscape="http://www.inkscape.org/namespaces/inkscape"
   xmlns:sodipodi="http://sodipodi.sourceforge.net/DTD/sodipodi-0.dtd"
   xmlns="http://www.w3.org/2000/svg"
   xmlns:svg="http://www.w3.org/2000/svg">
  <defs
     id="defs40">
    <inkscape:path-effect
       effect="perspective-envelope"
       up_left_point="27.685148,53.730909"
       up_right_point="143.68515,53.730909"
       down_left_point="-0.99013483,123.73091"
       down_right_point="115.00987,123.73091"
       id="path-effect18417"
       is_visible="true"
       lpeversion="1"
       deform_type="perspective"
       horizontal_mirror="false"
       vertical_mirror="false"
       overflow_perspective="false" />
  </defs>
  <sodipodi:namedview
     id="namedview38"
     pagecolor="#ffffff"
     bordercolor="#999999"
     borderopacity="1"
     inkscape:pageshadow="0"
     inkscape:pageopacity="0"
     inkscape:pagecheckerboard="0"
     showgrid="false"
     showguides="true"
     inkscape:guide-bbox="true"
     inkscape:snap-smooth-nodes="true"
     inkscape:zoom="3.6720787"
     inkscape:cx="64.404938"
     inkscape:cy="43.708214"
     inkscape:window-width="1848"
     inkscape:window-height="1016"
     inkscape:window-x="72"
     inkscape:window-y="27"
     inkscape:window-maximized="1"
     inkscape:current-layer="svg36"
     inkscape:object-paths="false"
     fit-margin-top="0"
     fit-margin-left="0"
     fit-margin-right="0"
     fit-margin-bottom="0"
     inkscape:snap-nodes="false"
     inkscape:snap-bbox="true"
     inkscape:bbox-nodes="true">
    <sodipodi:guide
       position="0,61.640738"
       orientation="1,0"
       id="guide20399" />
    <sodipodi:guide
       position="1.8777824,-1.2016525"
       orientation="1,0"
       id="guide21154" />
    <sodipodi:guide
       position="0,1.8735214e-06"
       orientation="0,-1"
       id="guide21156" />
  </sodipodi:namedview>
  <path
     id="rect9696"
     style="fill:#ef9a36;fill-opacity:1;stroke:none;stroke-width:0.445639;stop-color:#000000"
     d="m 10,23.164505 c -5.54,0 -10,4.46 -10,10 v 17.566407 62.433588 0.56641 c 0,5.54 4.46,10 10,10 h 96 c 5.54,0 10,-4.46 10,-10 V 50.730912 c 0,-5.54 -4.46,-10 -10,-10 H 52 v -7.566407 c 0,-5.54 -4.46,-10 -10,-10 z" />
  <path
     fill="#00d24b"
     d="m 97.294531,9.0605216 2.35,-8.48000004 a 0.8,0.8 0 0 1 1.249999,-0.42 q 1.11,0.83 1.96,2.14000004 6.04,9.3699994 10.7,17.0899994 1.98,3.27 -1.2,5.22 -9.03,5.54 -17.229999,10.18 -1.41,0.81 -2.97,1.43 a 0.96,0.97 83 0 1 -1.32,-1.02 q 0.53,-3.74 1.74,-7.43 c 0.37,-1.14 0.36,-2.76 -0.98,-3.29 q -10.23,-4.05 -22.14,-4.35 c -2.96,-0.08 -5.9,1.54 -7.46,4.02 q -0.15,0.24 -0.42,0.17 -0.49,-0.11 -0.27,-0.56 c 4.66,-9.77 13.01,-15.8799994 23.76,-15.7199994 q 6.32,0.09 11.73,1.31 a 0.42,0.42 0 0 0 0.5,-0.29 z"
     id="path26" />
  <rect
     style="fill:#cecdcc;fill-opacity:1;stroke:none;stroke-width:0.377953;stop-color:#000000"
     id="rect3910"
     width="90"
     height="70"
     x="12.634531"
     y="53.730518"
     ry="5" />
  <rect
     style="fill:#e8e7e5;fill-opacity:1;stroke:none;stroke-width:0.377953;stop-color:#000000"
     id="rect1575"
     width="90"
     height="70"
     x="20.274532"
     y="47.134094"
     ry="5" />
  <path
     style="fill:#facc43;fill-opacity:1;stroke:none;stroke-width:0.445639;stop-color:#000000"
     id="rect18415"
     width="116"
     height="83"
     x="-0.99013442"
     y="40.730907"
     ry="10"
     inkscape:path-effect="#path-effect18417"
     d="m 37.685148,53.730909 96.000002,0 c 5.54,0 8.45914,3.761446 6.54515,8.433735 l -21.76558,53.132526 c -1.91399,4.67229 -7.91485,8.43374 -13.45485,8.43374 l -96.0000044,0 c -5.5400002,0 -8.4591358,-3.76145 -6.545147,-8.43374 L 24.230295,62.164644 c 1.913988,-4.672289 7.914853,-8.433735 13.454853,-8.433735 z"
     sodipodi:type="rect" />
</svg>
